# xmcd
#
# Track frame offsets:
#	150
#	16248
#	33208
#	48107
#	62327
#	77379
#	95516
#	114712
#	131083
#	149843
#	165049
#	181689
#	203071
#	218802
#	232733
#	249199
#	270063
#	282392
#	301159
#
# Disc length: 4250 seconds
#
# Revision: 0
# Processed by: cddbd v1.5.2PL0 Copyright (c) Steve Scherf et al.
# Submitted via: EZCDAudioConverter 4.0.5.1
#
DISCID=e6109813
DTITLE=Vários - Sucessos Sertanejo - 001
DYEAR=2003
DGENRE=Sertanejo
TTITLE0=Rionegro and Solimões - Tô Por Aí
TTITLE1=As Mineirinhas - Como Eu Te Amo
TTITLE2=Bruno and Marrone - Programa de Fim de Semana
TTITLE3=Chico Rey and Paraná Feat. Leonardo - Alma Transparente
TTITLE4=Joaquim and Manuel - Boate Azul
TTITLE5=Cleiton and Camargo - Você Vai Sentir Saudade
TTITLE6=Chrystian and Ralf - Um Cantinho do Seu Coração
TTITLE7=Edson and Hudson - Mil Razões Para Chorar (Acústico)
TTITLE8=Chitãozinho and Xororó - Encontro Casual
TTITLE9=Chitãozinho and Xororó - Tenho Ciúme de Tudo
TTITLE10=João Mineiro and Marciano - Seu Amor Ainda é Tudo
TTITLE11=Bruno and Marrone - Passou da Conta
TTITLE12=Pedro and Thiago - Pra Onde Você For (Wherever You Will Go)
TTITLE13=Bruno and Marrone - Credo Em Cruz, Ave Maria
TTITLE14=Bruno and Marrone - Menina (Querida)
TTITLE15=Daniel - Um Homem Apaixonado
TTITLE16=Bruno and Marrone - Dormi na Praça (Acústico)
TTITLE17=Chitãozinho and Xororó - Eu e o Sabiá
TTITLE18=Dallas Company - Clima de Rodeio
EXTD=
EXTT0=
EXTT1=
EXTT2=
EXTT3=
EXTT4=
EXTT5=
EXTT6=
EXTT7=
EXTT8=
EXTT9=
EXTT10=
EXTT11=
EXTT12=
EXTT13=
EXTT14=
EXTT15=
EXTT16=
EXTT17=
EXTT18=
PLAYORDER=
